HIERARCHY
ROOT simHips
{
  OFFSET 0.593108 87.7809 -0.880335
  CHANNELS 6 Xposition Yposition Zposition Zrotation Xrotation Yrotation
  JOINT simSpine
  {
    OFFSET -0.000355721 21.3001 -0.016921
    CHANNELS 3 Zrotation Xrotation Yrotation
    JOINT simLeftArm
    {
      OFFSET 13.5181 21.3012 0
      CHANNELS 3 Zrotation Xrotation Yrotation
      JOINT simLeftForeArm
      {
        OFFSET 24.5783 0 0
        CHANNELS 3 Zrotation Xrotation Yrotation
        JOINT simLeftHand
        {
          OFFSET 24.5783 0 0
          CHANNELS 3 Zrotation Xrotation Yrotation
          End Site
          {
            OFFSET 7.32568 1.52588e-05 0.0169305
          }
        }
      }
    }
    JOINT simHead
    {
      OFFSET 0 27.4458 -0.00489235
      CHANNELS 3 Zrotation Xrotation Yrotation
      End Site
      {
        OFFSET 0 0 0
      }
    }
    JOINT simRightArm
    {
      OFFSET -13.5174 21.3012 0
      CHANNELS 3 Zrotation Xrotation Yrotation
      JOINT simRightForeArm
      {
        OFFSET -24.5783 0 0
        CHANNELS 3 Zrotation Xrotation Yrotation
        JOINT simRightHand
        {
          OFFSET -24.5783 0 0
          CHANNELS 3 Zrotation Xrotation Yrotation
          End Site
          {
            OFFSET -7.32568 1.52588e-05 0.0169305
          }
        }
      }
    }
  }
  JOINT simRightUpLeg
  {
    OFFSET -8.44614 -9.41038 0.835684
    CHANNELS 3 Zrotation Xrotation Yrotation
    JOINT simRightLeg
    {
      OFFSET 0 -40.9639 0
      CHANNELS 3 Zrotation Xrotation Yrotation
      JOINT simRightFoot
      {
        OFFSET 0 -40.9639 0
        CHANNELS 3 Zrotation Xrotation Yrotation
        End Site
        {
          OFFSET 0.50614 -9.67405 14.6709
        }
      }
    }
  }
  JOINT simLeftUpLeg
  {
    OFFSET 8.44614 -9.41038 0.835684
    CHANNELS 3 Zrotation Xrotation Yrotation
    JOINT simLeftLeg
    {
      OFFSET 0 -40.9639 0
      CHANNELS 3 Zrotation Xrotation Yrotation
      JOINT simLeftFoot
      {
        OFFSET 0 -40.9639 0
        CHANNELS 3 Zrotation Xrotation Yrotation
        End Site
        {
          OFFSET -0.50614 -9.67405 14.6709
        }
      }
    }
  }
}
MOTION
Frames:	27
Frame Time:	0.0333333
0.593108 87.7809 -0.880335 2.00195 7.5529 -29.0849 -0.266835 1.6091 -0.474178 -55.1444 -29.8922 -34.1298 0.0225617 -1.82395e-05 -126.703 -5.03495 -72.3821 -6.81113 -11.0802 7.70338 20.1952 47.1695 25.2474 42.2246 -0.0104241 1.17683e-05 112.682 -15.4275 9.84943 5.19295 -20.1431 -28.6755 -19.2099 -3.8847 55.937 -3.23669 21.5529 -26.4995 3.25388 31.5421 -40.5725 29.1986 -4.52667 57.1305 9.54771 -11.2988 -14.9304 -2.47595 
0.577914 87.5388 -1.04885 1.83116 8.03084 -27.8269 -0.126003 1.67335 -0.733836 -55.2498 -27.4809 -34.7001 5.54066e-05 -1.76596e-05 -125.357 -4.97298 -71.7342 -6.70352 -10.9805 7.72368 18.8979 46.6866 25.1585 41.0876 -0.0304283 1.1554e-05 112.247 -16.1431 6.69048 5.57099 -19.4618 -29.1195 -18.5146 -4.2573 56.562 -4.89545 22.7205 -26.6108 3.99109 31.7436 -41.9456 29.1901 -3.70562 57.657 8.30485 -11.2018 -14.8238 -2.56816 
0.495501 87.3152 -1.06564 1.49072 8.50071 -24.7118 0.180932 1.73049 -0.956353 -55.3847 -24.4867 -35.6743 -5.4479e-06 -1.74021e-05 -124.766 -4.29831 -70.9483 -5.99879 -10.1369 7.94854 16.4946 47.4035 24.5376 38.71 -0.0114311 1.14226e-05 111.981 -16.1649 2.96785 5.92296 -18.4792 -28.6423 -17.5505 -4.93709 56.9147 -5.60722 23.9737 -27.638 2.99361 31.1598 -43.9254 28.5915 -2.5269 58.0149 5.20717 -10.4075 -14.69 -2.31586 
0.20185 87.184 -0.73611 0.776359 8.89979 -17.5002 0.863686 1.70844 -1.10238 -55.4645 -20.79 -37.2718 0.000436687 -1.79229e-05 -125.965 -3.81023 -70.2639 -5.59071 -7.31223 8.36285 11.5293 51.2168 21.3179 31.931 0.000668789 1.23217e-05 113.813 -14.612 0.884127 5.75825 -16.25 -26.0151 -15.942 -7.19704 56.2825 -3.90219 25.4049 -30.6716 -1.38534 28.7696 -46.8915 26.7462 -1.04413 57.7767 -1.50048 -8.04573 -14.1928 -1.70239 
-0.31386 87.1802 -0.0689626 -0.272715 9.00996 -6.21294 1.91444 1.53412 -1.00909 -55.277 -18.2072 -39.3709 0.00978942 -1.91021e-05 -128.751 -3.71242 -70.5663 -5.72361 -2.59914 8.04893 3.7553 55.1855 14.6122 23.6284 -7.95462e-05 1.37086e-05 116.692 -12.4941 -0.539713 5.11505 -12.2217 -21.1251 -14.0318 -11.6483 54.2014 -0.78499 27.1275 -34.1952 -6.76015 24.0247 -50.1731 23.3976 -0.160129 56.6977 -9.2431 -4.50813 -12.522 -2.33885 
-0.74057 87.133 0.614721 -1.30364 8.73258 5.43801 2.91801 1.31019 -0.659879 -54.5762 -18.5041 -40.9977 -0.000404243 -2.0055e-05 -131.084 -3.57523 -72.0215 -5.83865 1.97065 6.61352 -3.97313 55.3626 5.39528 21.2935 0.000256225 1.3552e-05 116.364 -9.7172 -1.0693 4.37969 -8.36147 -15.8628 -12.9694 -12.5363 52.1038 -1.32619 21.0991 -38.5449 -13.0348 18.1293 -52.6234 19.0771 -0.585122 55.6048 -9.4057 -1.96114 -10.1051 -9.05509 
-0.961776 86.9279 1.10551 -1.9638 8.17614 15.5273 3.58217 1.12163 -0.115076 -53.3042 -21.313 -41.2236 0.000968588 -2.05699e-05 -132.379 -3.47085 -74.2648 -5.91185 4.96352 4.90074 -9.5498 52.4802 -4.92721 25.1451 0.000272716 1.07122e-05 110.549 -6.31442 0.717238 3.29516 -6.84952 -13.6659 -12.5798 -12.0972 54.5443 -2.54825 20.2991 -35.6032 -13.5887 11.7257 -54.1076 13.6885 -1.90208 54.9947 -8.37599 0.530008 -8.35783 -14.1341 
-1.01805 86.6442 1.31333 -2.081 7.5767 22.3898 3.85338 1.01989 0.530581 -51.4965 -25.2668 -39.3642 0.00155157 -2.08727e-05 -133.154 -3.79472 -76.7931 -6.29928 5.8785 3.78129 -11.6921 49.2732 -12.7654 35.5565 -0.0399324 2.55696e-06 94.8063 -3.37394 7.21855 2.18422 -7.64792 -12.8914 -12.5083 -9.90638 57.987 -3.94191 23.9439 -29.7089 -9.37035 5.88503 -54.6679 7.91978 -3.00387 54.8052 -7.47215 2.05243 -7.41609 -16.6941 
-1.02517 86.4529 1.28957 -1.71857 7.09869 25.5692 3.85666 1.00777 1.14941 -49.4434 -28.3566 -35.8062 0.00198829 -2.13232e-05 -134.324 -4.79782 -78.6015 -7.299 5.3126 3.4173 -10.6392 46.6682 -15.592 50.0046 -0.000279304 -1.1019e-05 68.8341 -1.55941 17.4364 1.36236 -10.3099 -12.4718 -12.7258 -3.75498 60.6004 -8.80917 24.166 -24.9608 -5.21437 1.54787 -54.5637 3.14094 -2.99953 54.7319 -7.42882 2.24053 -7.00927 -17.2872 
-1.03007 86.4313 1.17407 -1.14912 6.75501 26.1063 3.77351 1.06377 1.63655 -47.8362 -28.9618 -32.2199 0.00229202 -2.20088e-05 -136.152 -5.57966 -78.3378 -8.08735 4.49024 3.5035 -7.97866 42.3602 -14.065 63.6942 0.000205086 -2.38741e-05 38.5279 -1.16682 25.1822 1.26197 -13.3247 -12.3046 -13.4498 2.53672 62.1304 -14.3025 22.5746 -21.8132 -2.65502 -0.738747 -54.0109 0.547324 -2.30367 54.4974 -7.9739 1.74281 -6.87701 -16.9153 
-1.04521 86.5073 1.10643 -0.69371 6.4698 25.7197 3.68935 1.16519 1.94883 -47.1848 -26.9246 -30.3663 0.00247641 -2.26462e-05 -137.908 -5.03286 -75.5401 -7.59323 4.43089 3.87734 -5.6014 33.4883 -10.675 75.7443 0.000371831 -3.02838e-05 7.09688 -2.97518 22.7404 5.3982 -15.4243 -12.4206 -14.6581 5.55703 63.14 -17.2578 21.6189 -19.2794 -1.97895 -1.35988 -53.3755 -0.0670441 -1.83872 54.2402 -8.33947 1.39316 -6.87143 -16.3778 
-1.06791 86.5999 1.17981 -0.563108 6.198 25.5453 3.60012 1.27514 2.07038 -47.2145 -23.8615 -30.629 0.00255526 -2.28933e-05 -138.605 -3.84039 -71.652 -6.46841 5.31297 4.58321 -4.4655 29.7988 -8.44822 77.345 0.000451439 -3.05176e-05 -0.000499045 -1.4384 19.5174 3.20494 -15.8654 -12.7889 -15.8906 3.88536 63.9672 -16.1082 22.3268 -16.5776 -2.71873 -1.22606 -52.8921 0.0676249 -1.82636 54.1519 -8.3323 1.38659 -6.97282 -15.8618 
-1.0495 86.7021 1.41397 -0.782395 5.97962 25.5109 3.49446 1.34427 1.99812 -47.4434 -22.159 -32.1006 0.00254213 -2.26349e-05 -137.877 -2.815 -69.154 -5.46498 6.45715 5.51418 -4.24753 29.5802 -7.322 77.1837 0.000455266 -3.05176e-05 4.36728e-05 -1.70835 17.2095 3.43554 -14.9324 -13.2357 -16.4905 -0.510625 64.2665 -12.4435 24.1662 -13.9742 -4.09357 -1.02737 -52.6338 0.00113923 -1.51265 54.2904 -8.54702 1.2967 -7.28494 -15.1621 
-0.908503 86.8362 1.72296 -1.19359 5.88735 24.7649 3.3869 1.35115 1.77401 -47.6925 -23.0569 -33.536 0.00245021 -2.20054e-05 -136.143 -2.16491 -69.3822 -4.77918 6.93689 6.36883 -3.96976 32.9617 -6.84347 78.3563 0.000398596 -3.05176e-05 0.0002285 -4.07677 18.3639 7.56252 -13.6224 -13.7947 -16.2893 -4.89463 63.9892 -8.73693 26.2997 -11.7407 -5.4829 -0.838038 -52.5386 -0.223906 -0.0400192 54.5816 -9.67058 0.657652 -7.89257 -14.1948 
-0.594349 87.0059 1.96901 -1.54504 5.95647 22.5771 3.27483 1.33237 1.50041 -47.9539 -25.7393 -34.2089 0.00229257 -2.12725e-05 -134.191 -1.87354 -71.4813 -4.43691 6.32632 6.95646 -2.86864 39.6182 -6.33403 71.2404 0.000309654 -2.91067e-05 17.4905 -4.10871 22.0666 4.77749 -13.1789 -14.4642 -15.772 -7.14385 63.4425 -6.85029 28.1396 -10.1592 -6.30027 -0.236956 -52.4374 0.0314146 2.4045 54.8698 -11.5837 -0.520384 -8.75944 -12.9902 
-0.1344 87.2137 2.08232 -1.63662 6.17372 18.8564 3.10067 1.34915 1.27604 -48.3261 -28.4228 -34.1783 0.00208235 -2.07112e-05 -132.74 -1.86499 -73.5541 -4.39546 4.92567 7.33978 -0.816481 49.8673 -5.54696 63.3156 0.000197845 -2.47409e-05 35.8346 -2.4601 25.9137 3.10312 -14.166 -15.1646 -15.6581 -7.04074 62.7356 -6.87446 29.6159 -9.50243 -6.27513 1.31736 -52.1535 1.33185 4.45216 55.0515 -13.2149 -1.74576 -9.75802 -11.3919 
0.372232 87.4718 2.09562 -1.44815 6.49236 14.0178 2.81588 1.42035 1.12712 -48.9421 -29.9419 -33.8677 0.00183281 -2.04859e-05 -132.166 -2.00227 -74.4208 -4.51414 3.30386 7.70039 1.8595 55.3675 -3.06881 54.1317 8.06532e-05 -1.81778e-05 53.441 -1.38553 22.0429 2.5388 -15.9381 -15.9494 -16.3309 -6.45819 61.7191 -7.18922 30.8286 -9.87805 -5.93567 4.12787 -51.5701 3.93629 4.92704 55.13 -13.6178 -2.54945 -10.7587 -9.27648 
0.808128 87.7731 2.07251 -1.14819 6.84782 8.60385 2.48256 1.4998 1.0119 -49.717 -30.2423 -33.5837 0.00155737 -2.05704e-05 -132.381 -2.14381 -74.1057 -4.63001 1.75657 8.14095 4.7258 57.9415 1.13107 44.65 -0.000134914 -1.0396e-05 70.0832 -1.86012 15.0424 2.74526 -17.1312 -16.9013 -17.6748 -7.4528 60.2291 -6.16892 31.2481 -12.1116 -6.33077 8.03245 -50.733 7.75978 4.08382 55.2088 -12.9751 -2.90937 -11.6884 -6.90321 
1.08585 88.0801 2.04253 -0.891317 7.17573 3.09183 2.19117 1.53109 0.869545 -50.418 -29.844 -33.4433 0.00126959 -2.08022e-05 -132.972 -2.20993 -73.1391 -4.64825 0.217878 8.62782 7.43439 59.2894 6.83631 36.6891 0.0107976 -2.76905e-06 84.794 -3.84925 8.77078 3.41826 -16.8095 -17.7485 -19.2807 -10.1048 57.8752 -3.93152 29.5227 -17.3385 -7.87051 12.4766 -49.5385 12.3009 2.88431 55.2066 -12.0788 -3.12596 -12.5363 -4.6436 
1.16924 88.3218 1.98816 -0.613417 7.37947 -2.14561 1.89569 1.50455 0.680776 -50.9836 -29.2362 -33.4999 0.000982975 -2.10453e-05 -133.599 -2.18113 -71.9371 -4.55045 -1.44452 9.0862 9.80931 59.9233 13.3753 31.5591 0.000625378 3.7611e-06 97.0793 -6.6237 4.09471 4.0798 -15.7482 -17.8948 -20.6462 -11.5409 54.4644 -2.87524 25.2921 -24.4023 -9.65943 16.5295 -48.0753 16.532 1.93367 55.2243 -11.3809 -3.45614 -13.3423 -2.49763 
1.10998 88.4462 1.87063 -0.203598 7.33055 -6.91199 1.53906 1.45174 0.4947 -51.5457 -28.7598 -33.7449 0.000710942 -2.12645e-05 -134.171 -2.1142 -70.8247 -4.4052 -3.16119 9.46213 11.8667 59.6479 19.4984 29.5512 0.000639614 8.66361e-06 106.492 -9.07773 0.232804 4.38845 -14.9899 -17.5281 -21.532 -12.0331 50.7939 -2.43772 22.7653 -29.764 -10.0043 19.5352 -46.4767 19.5817 1.15916 55.3472 -9.41627 -4.27515 -14.063 -1.5489 
0.971732 88.4233 1.60634 0.393207 7.01535 -11.3337 1.03964 1.41531 0.368496 -52.2494 -28.7196 -34.0338 0.000466937 -2.14098e-05 -134.552 -2.12896 -70.2189 -4.34109 -4.7886 9.68958 13.7574 58.285 24.0496 30.1657 0.000370676 1.1663e-05 112.468 -10.567 -3.33628 4.32702 -17.2345 -18.2949 -21.792 -9.43801 50.8405 -2.95192 26.9106 -28.6014 -6.19377 21.5494 -44.9251 21.4388 0.278532 55.6259 -5.8309 -5.5903 -14.6175 -1.68942 
0.835241 88.3692 1.17934 0.930885 6.67656 -15.874 0.579738 1.41623 0.299383 -53.0974 -29.3602 -34.1791 0.000264529 -2.13012e-05 -134.266 -2.35253 -70.4497 -4.48117 -6.33438 9.64096 15.6914 56.032 26.3706 32.6294 5.60999e-06 1.29141e-05 115.035 -11.2331 -6.00731 4.13315 -19.9047 -19.6784 -21.673 -4.38256 52.1339 -5.96915 25.0474 -28.1189 -2.67929 23.4959 -43.3553 22.9756 -0.92935 55.8627 -1.57726 -7.06854 -14.9553 -1.89765 
0.717223 88.2999 0.571121 1.40078 6.57095 -21.0242 0.18657 1.44854 0.212568 -53.9615 -30.7002 -34.1251 0.000117278 -2.07516e-05 -132.843 -2.8535 -71.4434 -4.88108 -7.93027 9.1955 17.8369 53.2782 26.5834 36.2249 -0.000186022 1.30201e-05 115.255 -11.5786 -6.99653 4.05458 -21.3572 -22.1156 -21.1967 -1.93641 53.3236 -7.71278 23.8191 -26.78 1.65141 26.0794 -41.712 25.0136 -2.56611 56.0383 3.15343 -8.63145 -15.0793 -2.13807 
0.604988 88.2126 -0.153142 1.88136 6.72157 -26.676 -0.178507 1.50033 0.0654398 -54.7626 -32.3996 -33.9944 3.84839e-05 -1.97969e-05 -130.444 -3.59006 -72.7546 -5.49433 -9.64061 8.38232 20.1165 50.3829 25.5162 40.2398 5.82767e-05 1.26788e-05 114.548 -11.9708 -6.32434 4.15194 -21.2193 -25.5215 -20.3905 -2.81047 54.345 -4.95644 22.1921 -26.1649 3.37198 29.1736 -39.9259 27.527 -4.51942 56.1486 8.05227 -10.218 -15.0384 -2.37196 
0.584444 88.0139 -0.56612 2.00343 7.10504 -28.5237 -0.264338 1.55402 -0.198258 -54.9975 -31.5528 -33.9844 8.62241e-06 -1.90003e-05 -128.506 -4.40026 -72.754 -6.23322 -10.5593 7.9405 20.4823 48.5913 25.2499 41.8224 -0.0143916 1.21622e-05 113.486 -13.4119 0.380982 4.62292 -20.6796 -27.3787 -19.7635 -3.5026 55.16 -3.26253 21.4863 -26.3944 3.0639 30.6196 -39.9338 28.6007 -4.81227 56.5868 9.38764 -10.9048 -14.9848 -2.45018 
0.593108 87.7809 -0.880333 2.00196 7.55291 -29.0849 -0.266843 1.60911 -0.474145 -55.1444 -29.8922 -34.1298 0.0225617 -1.82394e-05 -126.703 -5.03495 -72.3821 -6.81113 -11.0802 7.70337 20.1952 47.1694 25.2474 42.2245 -0.010241 1.17683e-05 112.683 -15.4275 9.84942 5.19294 -20.1433 -28.6755 -19.2099 -3.88463 55.9372 -3.23659 21.5529 -26.4996 3.25391 31.5422 -40.5725 29.1987 -4.52672 57.1305 9.54773 -11.2988 -14.9305 -2.47596 
